<svg width="28" height="27" viewBox="0 0 28 27" fill="none" xmlns="http://www.w3.org/2000/svg">
<path fill-rule="evenodd" clip-rule="evenodd" d="M3.11111 8.55582C2.69855 8.55582 2.30289 8.71971 2.01117 9.01143C1.71944 9.30316 1.55556 9.69882 1.55556 10.1114V14.778C1.55556 15.1906 1.71944 15.5863 2.01117 15.878C2.30289 16.1697 2.69855 16.3336 3.11111 16.3336H6.22222V8.55582H3.11111ZM6.22222 17.8892H4.66667V24.1114C4.66667 24.3177 4.74861 24.5155 4.89447 24.6614C5.04033 24.8072 5.23816 24.8892 5.44444 24.8892C5.65072 24.8892 5.84855 24.8072 5.99442 24.6614C6.14028 24.5155 6.22222 24.3177 6.22222 24.1114V17.8892ZM3.11111 17.8892C2.28599 17.8892 1.49467 17.5614 0.911223 16.9779C0.327777 16.3945 0 15.6032 0 14.778V10.1114C0 9.28626 0.327777 8.49494 0.911223 7.91149C1.49467 7.32804 2.28599 7.00027 3.11111 7.00027H7C7.20628 7.00027 7.40411 7.08221 7.54997 7.22807C7.69583 7.37393 7.77778 7.57177 7.77778 7.77805V24.1114C7.77778 24.7302 7.53195 25.3237 7.09436 25.7613C6.65678 26.1989 6.06328 26.4447 5.44444 26.4447C4.82561 26.4447 4.23211 26.1989 3.79453 25.7613C3.35694 25.3237 3.11111 24.7302 3.11111 24.1114V17.8892ZM19.0408 0.0959339C19.163 0.163005 19.265 0.261709 19.336 0.381712C19.407 0.501715 19.4445 0.638603 19.4444 0.778045V8.55582C20.2696 8.55582 21.0609 8.8836 21.6443 9.46705C22.2278 10.0505 22.5556 10.8418 22.5556 11.6669V12.4447C22.5556 13.2698 22.2278 14.0612 21.6443 14.6446C21.0609 15.228 20.2696 15.5558 19.4444 15.5558V23.3336C19.4445 23.473 19.4071 23.6099 19.3361 23.7299C19.2652 23.8499 19.1632 23.9486 19.041 24.0157C18.9188 24.0828 18.7808 24.1158 18.6415 24.1113C18.5022 24.1068 18.3666 24.0649 18.249 23.99L9.69344 18.5456C9.58304 18.4753 9.49215 18.3783 9.4292 18.2636C9.36625 18.1488 9.33328 18.02 9.33333 17.8892V6.22249C9.33328 6.09161 9.36625 5.96283 9.4292 5.84808C9.49215 5.73334 9.58304 5.63633 9.69344 5.56604L18.249 0.121601C18.3666 0.0467801 18.5021 0.00492364 18.6414 0.000408422C18.7807 -0.0041068 18.9186 0.0288851 19.0408 0.0959339ZM19.4444 14.0003C19.857 14.0003 20.2527 13.8364 20.5444 13.5447C20.8361 13.2529 21 12.8573 21 12.4447V11.6669C21 11.2544 20.8361 10.8587 20.5444 10.567C20.2527 10.2753 19.857 10.1114 19.4444 10.1114V14.0003ZM10.8889 6.64949V17.4614L17.8889 21.9157V2.19516L10.8889 6.64949ZM27.0916 8.12416C27.1483 8.20913 27.1877 8.30445 27.2075 8.40465C27.2274 8.50486 27.2273 8.608 27.2073 8.70817C27.1873 8.80835 27.1477 8.9036 27.0909 8.9885C27.0341 9.07339 26.9611 9.14626 26.8761 9.20293L24.5428 10.7585C24.4578 10.8152 24.3625 10.8546 24.2623 10.8744C24.1621 10.8943 24.0589 10.8942 23.9588 10.8742C23.8586 10.8542 23.7633 10.8146 23.6785 10.7578C23.5936 10.701 23.5207 10.628 23.464 10.543C23.4073 10.4581 23.3679 10.3628 23.3481 10.2625C23.3282 10.1623 23.3283 10.0592 23.3483 9.95904C23.3683 9.85886 23.4078 9.76361 23.4647 9.67872C23.5215 9.59383 23.5945 9.52095 23.6794 9.46427L26.0128 7.90871C26.0978 7.85201 26.1931 7.81261 26.2933 7.79275C26.3935 7.77289 26.4966 7.77297 26.5968 7.79297C26.697 7.81298 26.7922 7.85252 26.8771 7.90935C26.962 7.96617 27.0349 8.03917 27.0916 8.12416ZM23.3333 13.2225C23.3333 13.0162 23.4153 12.8184 23.5611 12.6725C23.707 12.5267 23.9048 12.4447 24.1111 12.4447H27.2222C27.4285 12.4447 27.6263 12.5267 27.7722 12.6725C27.9181 12.8184 28 13.0162 28 13.2225C28 13.4288 27.9181 13.6266 27.7722 13.7725C27.6263 13.9183 27.4285 14.0003 27.2222 14.0003H24.1111C23.9048 14.0003 23.707 13.9183 23.5611 13.7725C23.4153 13.6266 23.3333 13.4288 23.3333 13.2225ZM23.464 15.9019C23.5207 15.8169 23.5935 15.744 23.6784 15.6871C23.7633 15.6303 23.8586 15.5908 23.9588 15.5708C24.0589 15.5507 24.1621 15.5507 24.2623 15.5705C24.3625 15.5904 24.4578 15.6298 24.5428 15.6865L26.8761 17.242C26.9611 17.2987 27.0341 17.3716 27.0909 17.4565C27.1477 17.5414 27.1873 17.6366 27.2073 17.7368C27.2273 17.837 27.2273 17.9401 27.2075 18.0403C27.1876 18.1405 27.1482 18.2358 27.0916 18.3208C27.0349 18.4058 26.962 18.4788 26.8771 18.5356C26.7922 18.5924 26.697 18.632 26.5968 18.652C26.4966 18.672 26.3935 18.6721 26.2933 18.6522C26.1931 18.6323 26.0978 18.593 26.0128 18.5363L23.6794 16.9807C23.5945 16.924 23.5215 16.8512 23.4646 16.7663C23.4078 16.6814 23.3683 16.5861 23.3483 16.486C23.3283 16.3858 23.3282 16.2826 23.348 16.1824C23.3679 16.0822 23.4073 15.9869 23.464 15.9019Z" fill="black"/>
</svg>
