<svg width="56" height="56" viewBox="0 0 56 56" fill="none" xmlns="http://www.w3.org/2000/svg">
<rect x="4" y="4" width="48" height="48" rx="24" fill="#FEF0C7"/>
<rect x="4" y="4" width="48" height="48" rx="24" stroke="#FFFAEB" stroke-width="8"/>
<path d="M28.7279 37.86L28.7169 37.862L28.6459 37.897L28.6259 37.901L28.6119 37.897L28.5409 37.862C28.5303 37.8587 28.5223 37.8603 28.5169 37.867L28.5129 37.877L28.4959 38.305L28.5009 38.325L28.5109 38.338L28.6149 38.412L28.6299 38.416L28.6419 38.412L28.7459 38.338L28.7579 38.322L28.7619 38.305L28.7449 37.878C28.7423 37.8673 28.7366 37.8613 28.7279 37.86ZM28.9929 37.747L28.9799 37.749L28.7949 37.842L28.7849 37.852L28.7819 37.863L28.7999 38.293L28.8049 38.305L28.8129 38.312L29.0139 38.405C29.0266 38.4083 29.0363 38.4057 29.0429 38.397L29.0469 38.383L29.0129 37.769C29.0096 37.757 29.0029 37.7497 28.9929 37.747ZM28.2779 37.749C28.2735 37.7463 28.2683 37.7455 28.2632 37.7466C28.2582 37.7477 28.2538 37.7507 28.2509 37.755L28.2449 37.769L28.2109 38.383C28.2116 38.395 28.2173 38.403 28.2279 38.407L28.2429 38.405L28.4439 38.312L28.4539 38.304L28.4579 38.293L28.4749 37.863L28.4719 37.851L28.4619 37.841L28.2779 37.749Z" fill="#DC6803"/>
<path d="M29.433 17.75L38.067 32.704C38.1986 32.932 38.2679 33.1907 38.2679 33.454C38.2679 33.7173 38.1986 33.976 38.067 34.204C37.9353 34.432 37.746 34.6214 37.518 34.753C37.2899 34.8847 37.0313 34.954 36.768 34.954H19.5C19.2367 34.954 18.978 34.8847 18.75 34.753C18.522 34.6214 18.3326 34.432 18.201 34.204C18.0693 33.976 18 33.7173 18 33.454C18 33.1907 18.0693 32.932 18.201 32.704L26.835 17.75C27.412 16.75 28.855 16.75 29.433 17.75ZM28.134 29.602C27.8687 29.602 27.6144 29.7074 27.4269 29.8949C27.2393 30.0824 27.134 30.3368 27.134 30.602C27.134 30.8672 27.2393 31.1216 27.4269 31.3091C27.6144 31.4966 27.8687 31.602 28.134 31.602C28.3992 31.602 28.6535 31.4966 28.8411 31.3091C29.0286 31.1216 29.134 30.8672 29.134 30.602C29.134 30.3368 29.0286 30.0824 28.8411 29.8949C28.6535 29.7074 28.3992 29.602 28.134 29.602ZM28.134 22.602C27.889 22.602 27.6526 22.692 27.4696 22.8547C27.2866 23.0175 27.1696 23.2417 27.141 23.485L27.134 23.602V27.602C27.1342 27.8569 27.2318 28.102 27.4068 28.2874C27.5818 28.4727 27.8209 28.5842 28.0754 28.5992C28.3298 28.6141 28.5803 28.5313 28.7758 28.3677C28.9712 28.2041 29.0969 27.9721 29.127 27.719L29.134 27.602V23.602C29.134 23.3368 29.0286 23.0824 28.8411 22.8949C28.6535 22.7074 28.3992 22.602 28.134 22.602Z" fill="#DC6803"/>
</svg>
