<svg width="52" height="52" viewBox="0 0 52 52" fill="none" xmlns="http://www.w3.org/2000/svg">
<g filter="url(#filter0_d_103_665)">
<rect x="2" y="1" width="48" height="48" rx="10" fill="white"/>
<rect x="2.5" y="1.5" width="47" height="47" rx="9.5" stroke="#9B0000"/>
<path d="M34.41 32L36.54 34.12L35.12 35.54L33 33.41L30.88 35.54L29.47 34.12L31.59 32L29.47 29.88L30.88 28.47L33 30.59L35.12 28.47L36.54 29.88L34.41 32ZM27 32C27 32.34 27.04 32.67 27.09 33H18C17.4696 33 16.9609 32.7893 16.5858 32.4142C16.2107 32.0391 16 31.5304 16 31V19C16 17.89 16.89 17 18 17H34C34.5304 17 35.0391 17.2107 35.4142 17.5858C35.7893 17.9609 36 18.4696 36 19V26.81C35.12 26.3 34.1 26 33 26C29.69 26 27 28.69 27 32ZM34 21V19L26 24L18 19V21L26 26L34 21Z" fill="#9B0000"/>
</g>
<defs>
<filter id="filter0_d_103_665" x="0" y="0" width="52" height="52" filterUnits="userSpaceOnUse" color-interpolation-filters="sRGB">
<feFlood flood-opacity="0" result="BackgroundImageFix"/>
<feColorMatrix in="SourceAlpha" type="matrix" values="0 0 0 0 0 0 0 0 0 0 0 0 0 0 0 0 0 0 127 0" result="hardAlpha"/>
<feOffset dy="1"/>
<feGaussianBlur stdDeviation="1"/>
<feColorMatrix type="matrix" values="0 0 0 0 0.0392157 0 0 0 0 0.0509804 0 0 0 0 0.0705882 0 0 0 0.05 0"/>
<feBlend mode="normal" in2="BackgroundImageFix" result="effect1_dropShadow_103_665"/>
<feBlend mode="normal" in="SourceGraphic" in2="effect1_dropShadow_103_665" result="shape"/>
</filter>
</defs>
</svg>
