<svg width="72" height="50" viewBox="0 0 72 50" fill="none" xmlns="http://www.w3.org/2000/svg">
<path d="M37.8704 21.8948C29.7946 25.9497 24.1123 31.7433 21.4789 37.6744L24.9165 44.5208L63.7573 25.0186L60.3196 18.1722C53.9898 16.7416 45.9478 17.8391 37.8704 21.8948ZM71.7665 0.475921L27.7394 1.95252L0.272683 36.3735L7.59916 36.1085L9.70464 40.3018C8.36604 41.3611 8.7546 42.1461 9.2219 43.0768C9.49793 43.6266 10.0035 44.1789 10.5436 44.3903L10.6962 49.7905L17.9863 46.1301L13.7629 42.7701C13.9099 42.2137 13.9043 41.5058 13.6282 40.956C13.1617 40.0268 11.353 39.8594 11.1978 39.5502L9.44482 36.059L18.5989 35.6638L18.4496 35.3665C20.9743 29.2188 27.6063 22.7912 36.1617 18.4955C44.7202 14.1982 53.8395 12.7169 60.2781 14.3642L60.4273 14.6614L71.7665 0.475921Z" fill="#00629B"/>
</svg>
